<svg width="40" height="39" viewBox="0 0 40 39" fill="none" xmlns="http://www.w3.org/2000/svg">
<g clip-path="url(#clip0_210_236)">
<path d="M25.7287 9.00127C23.5972 9.46013 21.5989 11.3453 20.1477 11.3453C18.6965 11.3453 16.6979 9.46013 14.5667 9.00127C10.0455 8.40978 3.62793 11.5685 3.62793 21.2796C3.62793 30.9904 10.6598 38.9154 13.6738 38.9154C17.0224 38.9154 17.4688 37.3526 20.1477 37.3526C22.8266 37.3526 23.273 38.9154 26.6215 38.9154C29.6355 38.9154 36.6674 30.9904 36.6674 21.2796C36.6674 11.5685 30.2498 8.40978 25.7287 9.00127Z" fill="url(#paint0_radial_210_236)"/>
<path d="M28.031 9.02028C27.2373 8.90838 26.4578 8.90542 25.728 9.00104C23.5968 9.45991 21.5983 11.3451 20.1471 11.3451C20.1104 11.3451 20.0728 11.343 20.0352 11.3407V13.704L22.0124 14.0725L35.6209 16.6099L28.031 9.02028Z" fill="url(#paint1_linear_210_236)"/>
<path d="M25.7286 9.00127C23.5971 9.46013 21.5988 11.3453 20.1476 11.3453C20.0733 11.3453 19.9972 11.3391 19.9199 11.3296C20.2402 12.0955 20.5706 12.637 20.6884 12.8205C20.6858 12.8323 20.6825 12.8442 20.6796 12.8563L20.7879 12.922L35.64 27.7674C36.2765 25.7575 36.6673 23.568 36.6673 21.2796C36.6673 11.5685 30.2497 8.40978 25.7286 9.00127Z" fill="url(#paint2_linear_210_236)"/>
<path d="M20.7337 12.8889C20.7337 12.8889 13.9167 2.94013 28.9648 0.132471C29.5927 0.0155344 30.1993 0.418744 30.342 1.04132C31.0283 4.0349 31.8578 12.2003 20.7337 12.8889Z" fill="url(#paint3_linear_210_236)"/>
<path d="M30.3417 1.04132C30.2627 0.696132 30.0407 0.41874 29.7517 0.259766C24.7661 5.69628 20.7334 12.8889 20.7334 12.8889C31.8575 12.2003 31.028 4.03489 30.3417 1.04132Z" fill="url(#paint4_linear_210_236)"/>
<path d="M27.8581 4.72859C27.7418 4.77003 27.6222 4.80319 27.5043 4.83723C27.3868 4.87187 27.2699 4.90621 27.1515 4.93404C27.0336 4.96453 26.9108 4.97785 26.79 4.99354C26.6692 5.00835 26.5558 5.0418 26.4463 5.09272C26.3379 5.14512 26.2317 5.20225 26.1251 5.2736C26.2136 5.13179 26.3021 4.99029 26.3903 4.84819L26.8308 4.16018C26.9768 3.92957 27.1352 3.7102 27.2847 3.48195C27.5911 3.03167 27.9123 2.59619 28.2646 2.18085L28.1787 2.08789L27.864 2.35907L27.7057 2.49584C27.6541 2.54261 27.6065 2.59205 27.5567 2.64001C27.3634 2.83658 27.1586 3.02753 26.9759 3.23328C26.5964 3.63619 26.2394 4.05627 25.8791 4.47517C25.8119 4.55747 25.7447 4.64007 25.6775 4.72237C25.6778 4.63385 25.6713 4.54593 25.6508 4.458C25.6236 4.33959 25.5937 4.21939 25.5816 4.09861C25.5668 3.97753 25.5585 3.85615 25.5502 3.73388C25.5413 3.61162 25.5309 3.48787 25.5297 3.36442C25.5152 3.11545 25.5244 2.86648 25.5262 2.60952L25.4581 2.59264C25.3474 2.82563 25.2535 3.06897 25.181 3.31972C25.1431 3.44495 25.1141 3.57195 25.0836 3.70014C25.0599 3.82862 25.0359 3.95799 25.0191 4.08825C25.001 4.21851 24.975 4.34995 24.9551 4.48257C24.938 4.6152 24.9433 4.74812 24.9764 4.87779C24.9833 4.90325 24.9907 4.92871 24.9983 4.95417C25.0827 5.22978 25.0217 5.52968 24.8444 5.75674L24.8412 5.76118C24.5321 6.15669 24.2328 6.55783 23.9308 6.95808C23.9282 6.83374 23.9151 6.71651 23.8968 6.60046C23.8761 6.48145 23.8388 6.36925 23.7822 6.26149C23.7263 6.15373 23.667 6.04508 23.6253 5.93081C23.5806 5.81743 23.5424 5.70197 23.5036 5.58563C23.4646 5.46928 23.4237 5.35235 23.3914 5.23304C23.3151 4.99591 23.2615 4.75227 23.1993 4.5033L23.1288 4.50389C23.08 4.75701 23.0501 5.01604 23.0424 5.27715C23.0374 5.40771 23.0412 5.53796 23.0436 5.6697C23.0528 5.79996 23.0619 5.9314 23.0782 6.06166C23.0933 6.19251 23.101 6.32603 23.1149 6.45954C23.1315 6.59187 23.17 6.71947 23.2345 6.837C23.2638 6.88821 23.2952 6.93913 23.3293 6.98887C23.4962 7.23014 23.4773 7.5546 23.2979 7.7867C23.1436 7.98594 22.9885 8.18488 22.8358 8.385C22.6419 8.63841 22.4613 8.90071 22.2913 9.16951C22.2869 9.06235 22.2751 8.96021 22.2591 8.85896C22.2386 8.73966 22.2013 8.62776 22.1448 8.5197C22.0886 8.41194 22.0296 8.30329 21.9876 8.18902C21.9429 8.07593 21.9047 7.96018 21.8659 7.84384C21.8269 7.72779 21.786 7.61055 21.7537 7.49155C21.6773 7.25412 21.6238 7.01048 21.5616 6.76151L21.4911 6.7621C21.4423 7.01521 21.4124 7.27455 21.405 7.53536C21.3997 7.66592 21.4035 7.79647 21.4062 7.92791C21.4151 8.05817 21.4242 8.18961 21.4405 8.32017C21.4556 8.45072 21.4633 8.58424 21.4772 8.71775C21.4941 8.85038 21.5323 8.97797 21.5971 9.09521C21.6625 9.21096 21.7389 9.32345 21.8354 9.4244C21.9459 9.54016 21.9743 9.71068 21.9009 9.85278C21.7108 10.2208 21.3724 10.8886 21.217 11.2563C21.0044 11.7696 20.8096 12.2939 20.6797 12.8561L20.788 12.9215C21.2271 12.5497 21.6104 12.145 21.9758 11.73C22.3396 11.314 22.6818 10.8857 23.0057 10.4457C23.0116 10.4381 23.0172 10.4304 23.0229 10.4224C23.1277 10.2806 23.313 10.2359 23.4761 10.3025C23.5963 10.3516 23.7197 10.3815 23.8426 10.4016C23.9749 10.4215 24.1079 10.4135 24.2381 10.3833C24.3681 10.3501 24.496 10.3111 24.6239 10.28C24.7517 10.2501 24.8782 10.2134 25.0037 10.1766C25.128 10.1337 25.2518 10.092 25.3723 10.0419C25.6144 9.94455 25.8474 9.82673 26.0679 9.69321L26.0443 9.62719C25.7891 9.65502 25.5422 9.68877 25.2929 9.69943C25.1701 9.71038 25.046 9.71245 24.9235 9.7163C24.8009 9.72015 24.6792 9.7243 24.5575 9.72163C24.4359 9.72163 24.3133 9.70387 24.1928 9.68847C24.072 9.67278 23.9539 9.67663 23.8352 9.69854C23.7067 9.7243 23.5785 9.75745 23.4462 9.8063C23.6007 9.56562 23.7473 9.31961 23.8858 9.06856C23.9948 8.86696 24.1449 8.59697 24.2775 8.36013C24.4184 8.1082 24.7047 7.96729 24.9874 8.0259C25.1256 8.05462 25.2669 8.06261 25.3945 8.08333C25.5271 8.10347 25.66 8.09547 25.79 8.06498C25.9202 8.03182 26.0481 7.99304 26.176 7.96196C26.3039 7.93206 26.4303 7.89505 26.5555 7.85864C26.6799 7.81542 26.8036 7.77397 26.9244 7.72364C27.1666 7.62625 27.3993 7.50872 27.6201 7.3752L27.5961 7.30889C27.3409 7.33672 27.094 7.37076 26.8451 7.38142C26.7219 7.39237 26.5979 7.39444 26.4753 7.398C26.353 7.40185 26.2311 7.40599 26.1094 7.40333C25.9877 7.40362 25.8655 7.38556 25.7447 7.37046C25.6242 7.35477 25.5061 7.35862 25.3871 7.38023C25.1606 7.42553 24.9356 7.49243 24.6854 7.63601C24.9667 7.17034 25.2447 6.70111 25.533 6.24018L25.5437 6.22212C25.7127 5.93762 26.0232 5.75763 26.3533 5.77717C26.4466 5.78279 26.539 5.77953 26.6295 5.77125C26.7628 5.75733 26.8895 5.71648 27.0079 5.65461C27.1254 5.58977 27.2397 5.5202 27.3554 5.45803C27.4721 5.39705 27.5852 5.32985 27.6974 5.26294C27.8069 5.19012 27.9164 5.11907 28.0206 5.04032C28.2308 4.88519 28.4268 4.7129 28.6068 4.52876L28.5674 4.47044C28.327 4.56132 28.0964 4.65606 27.8581 4.72859Z" fill="url(#paint5_linear_210_236)"/>
<path d="M20.9626 13.8052C20.6713 13.8297 20.3711 13.8431 20.0656 13.8431C19.8497 13.8431 19.6384 13.8369 19.43 13.8235C19.4042 12.343 19.242 10.5262 18.7535 8.70941C18.4631 7.62737 18.0566 6.54416 17.4935 5.5314C16.5412 3.81998 15.5776 3.11066 15.5675 3.10356C15.2262 2.85636 15.1465 2.37914 15.3905 2.03573C15.6359 1.69351 16.109 1.61062 16.4532 1.85278C16.5933 1.95106 19.1099 3.78208 20.3219 8.63066C20.6846 10.0765 20.93 11.7891 20.9626 13.8052Z" fill="url(#paint6_linear_210_236)"/>
<path d="M5.19531 29.29C7.44582 34.9948 11.5531 38.9153 13.6731 38.9153C17.0216 38.9153 17.468 37.3524 20.1469 37.3524C22.8258 37.3524 23.2722 38.9153 26.6208 38.9153C28.7407 38.9153 32.848 34.9948 35.0985 29.29H5.19531Z" fill="url(#paint7_linear_210_236)"/>
<path d="M26.0704 11.9814C25.8499 12.1457 25.6234 12.2849 25.391 12.4077C25.1542 12.5247 24.9167 12.631 24.6722 12.7204C24.1855 12.9024 23.6831 13.0327 23.1772 13.1357C22.1641 13.34 21.1307 13.4261 20.0969 13.427C19.0652 13.4232 18.0284 13.3391 17.0163 13.1351C16.5091 13.0345 16.0097 12.8983 15.5221 12.7183C15.2755 12.6324 15.0411 12.5217 14.8028 12.4069C14.6885 12.3435 14.5686 12.2837 14.4591 12.2091C14.3406 12.1434 14.2379 12.0593 14.123 11.9814C14.2764 12.2461 14.478 12.4835 14.7057 12.6961L24.5369 22.5271C24.7675 22.7778 25.0378 22.9975 25.3217 23.1869C25.7895 23.4996 26.3019 23.742 26.8301 23.9282C27.8905 24.2992 29.008 24.4629 30.1244 24.4649C31.2384 24.4632 32.3598 24.2971 33.4185 23.9261C33.9457 23.737 34.4597 23.501 34.9268 23.1869C35.3907 22.8743 35.822 22.4868 36.0979 22.0093L26.0704 11.9814Z" fill="url(#paint8_linear_210_236)"/>
<path d="M26.0704 11.9814C25.7942 12.4593 25.3632 12.8465 24.8993 13.1594C24.4318 13.4732 23.9179 13.7091 23.3906 13.8983C22.332 14.2696 21.2109 14.4356 20.0969 14.4371C18.9805 14.435 17.8626 14.2713 16.8022 13.9004C16.2741 13.7145 15.7616 13.4717 15.2939 13.1594C14.8288 12.8491 14.3993 12.4584 14.123 11.9814C14.2379 12.0593 14.3406 12.1434 14.4591 12.2091C14.5686 12.2837 14.6885 12.3435 14.8028 12.4069C15.0411 12.5217 15.2755 12.6324 15.5221 12.7183C16.0097 12.8983 16.5091 13.0345 17.0163 13.1351C18.0284 13.3391 19.0652 13.4232 20.0969 13.427C21.1307 13.4261 22.1641 13.34 23.1772 13.1357C23.6831 13.0327 24.1855 12.9024 24.6722 12.7204C24.9167 12.631 25.1542 12.5247 25.391 12.4077C25.6234 12.2849 25.8499 12.1457 26.0704 11.9814Z" fill="url(#paint9_linear_210_236)"/>
<path d="M23.0551 20.1238C23.0551 14.544 19.0588 10.0205 14.1291 10.0205C9.1994 10.0205 5.20312 14.544 5.20312 20.1238C5.20312 25.7039 9.1994 30.2272 14.1291 30.2272C19.0588 30.2272 23.0551 25.7039 23.0551 20.1238Z" fill="url(#paint10_linear_210_236)"/>
</g>
<defs>
<radialGradient id="paint0_radial_210_236" cx="0" cy="0" r="1" gradientUnits="userSpaceOnUse" gradientTransform="translate(7.20511 9.81437) scale(34.1935)">
<stop stop-color="#FF4B3E"/>
<stop offset="0.4462" stop-color="#FD4A3D"/>
<stop offset="0.6069" stop-color="#F64939"/>
<stop offset="0.7215" stop-color="#EB4533"/>
<stop offset="0.8141" stop-color="#DA412A"/>
<stop offset="0.8935" stop-color="#C43A1F"/>
<stop offset="0.9625" stop-color="#A93311"/>
<stop offset="1" stop-color="#972E07"/>
</radialGradient>
<linearGradient id="paint1_linear_210_236" x1="27.4263" y1="13.7608" x2="25.5527" y2="7.24911" gradientUnits="userSpaceOnUse">
<stop stop-color="#FF1D25" stop-opacity="0"/>
<stop offset="1" stop-color="#FF1D25"/>
</linearGradient>
<linearGradient id="paint2_linear_210_236" x1="29.2111" y1="15.798" x2="22.7669" y2="4.50346" gradientUnits="userSpaceOnUse">
<stop stop-color="#972E07" stop-opacity="0"/>
<stop offset="1" stop-color="#582707"/>
</linearGradient>
<linearGradient id="paint3_linear_210_236" x1="24.1518" y1="5.73741" x2="31.6749" y2="11.4511" gradientUnits="userSpaceOnUse">
<stop stop-color="#ACC130"/>
<stop offset="1" stop-color="#97A03B"/>
</linearGradient>
<linearGradient id="paint4_linear_210_236" x1="28.5643" y1="8.42164" x2="22.036" y2="4.79122" gradientUnits="userSpaceOnUse">
<stop stop-color="#97A03B" stop-opacity="0"/>
<stop offset="1" stop-color="#575C55"/>
</linearGradient>
<linearGradient id="paint5_linear_210_236" x1="22.9903" y1="6.28129" x2="24.8179" y2="7.79371" gradientUnits="userSpaceOnUse">
<stop stop-color="#97A03B"/>
<stop offset="1" stop-color="#6C7D47"/>
</linearGradient>
<linearGradient id="paint6_linear_210_236" x1="15.249" y1="7.7785" x2="20.9626" y2="7.7785" gradientUnits="userSpaceOnUse">
<stop stop-color="#C08552"/>
<stop offset="1" stop-color="#895738"/>
</linearGradient>
<linearGradient id="paint7_linear_210_236" x1="20.1469" y1="33.3839" x2="20.1469" y2="46.3598" gradientUnits="userSpaceOnUse">
<stop stop-color="#972E07" stop-opacity="0"/>
<stop offset="1" stop-color="#582707"/>
</linearGradient>
<linearGradient id="paint8_linear_210_236" x1="26.4499" y1="19.8908" x2="19.9669" y2="5.87622" gradientUnits="userSpaceOnUse">
<stop stop-color="#972E07" stop-opacity="0"/>
<stop offset="1" stop-color="#582707"/>
</linearGradient>
<linearGradient id="paint9_linear_210_236" x1="20.0967" y1="11.2405" x2="20.0967" y2="14.8347" gradientUnits="userSpaceOnUse">
<stop stop-color="#972E07" stop-opacity="0"/>
<stop offset="1" stop-color="#582707"/>
</linearGradient>
<linearGradient id="paint10_linear_210_236" x1="12.8031" y1="19.2301" x2="-4.74861" y2="7.3997" gradientUnits="userSpaceOnUse">
<stop offset="0.0013" stop-color="#E7EEED" stop-opacity="0"/>
<stop offset="0.7731" stop-color="#F9FBFA" stop-opacity="0.772549"/>
<stop offset="1" stop-color="white"/>
</linearGradient>
<clipPath id="clip0_210_236">
<rect width="38.8028" height="38.8028" fill="white" transform="translate(0.671875 0.112305)"/>
</clipPath>
</defs>
</svg>
